<svg xmlns="http://www.w3.org/2000/svg" xml:space="preserve" width="191.632" height="243.309"><path fill="#000000" d="M191.632 204.551v-10.766h-10.766v10.766zm-23.685-12.919h10.766v-10.766h-10.766zm0-12.919h10.766v-10.766h-10.766zm-12.919 51.677h10.766v-10.766h-10.766zm0-12.92h10.766v-10.766h-10.766zm0-12.919h10.766v-10.766h-10.766zm0-12.919h10.766v-10.766h-10.766zm0-12.919h10.766v-10.766h-10.766zm0-12.919h10.766v-10.766h-10.766zm-12.919 77.515h10.766v-10.766h-10.766zm0-51.677h10.766v-10.766h-10.766zm0-12.919h10.766v-10.766h-10.766zm0-12.919h10.766v-10.766h-10.766zm0-12.919h10.766v-10.766h-10.766zm0-51.676h10.766V90.433h-10.766zm0-38.757h10.766V51.676h-10.766ZM129.19 178.713h10.766v-10.766H129.19Zm0-12.919h10.766v-10.766H129.19Zm0-12.919h10.766v-10.766H129.19Zm0-38.757h10.766v-10.766H129.19Zm0-38.757h10.766V64.595H129.19Zm0-38.757h10.766V25.838H129.19Zm-12.919 142.109h10.766v-10.766h-10.766zm0-12.919h10.766v-10.766h-10.766zm0-12.919h10.766v-10.766h-10.766zm0-12.919h10.766V129.19h-10.766zm0-12.919h10.766v-10.766h-10.766zm0-12.919h10.766v-10.766h-10.766zm0-12.919h10.766V90.433h-10.766zm0-12.919h10.766V77.514h-10.766zm0-12.919h10.766V64.595h-10.766zm0-38.757h10.766V25.838h-10.766zm0-12.919h10.766V12.919h-10.766zm-12.919 167.947h10.766v-10.766h-10.766zm0-12.919h10.766v-10.766h-10.766zm0-12.919h10.766v-10.766h-10.766zm0-12.919h10.766v-10.766h-10.766zm0-38.757h10.766v-10.766h-10.766zm0-12.919h10.766V90.433h-10.766zm0-12.919h10.766V77.514h-10.766zm0-12.919h10.766V64.595h-10.766zm0-25.838h10.766V38.757h-10.766zm0-12.919h10.766V25.838h-10.766zm0-12.919h10.766V12.919h-10.766ZM90.433 191.632h10.766v-10.766H90.433Zm0-12.919h10.766v-10.766H90.433Zm0-12.919h10.766v-10.766H90.433Zm0-12.919h10.766v-10.766H90.433Zm0-38.757h10.766v-10.766H90.433Zm0-12.919h10.766V90.433H90.433Zm0-25.838h10.766V64.595H90.433Zm0-12.919h10.766V51.676H90.433Zm0-12.919h10.766V38.757H90.433Zm0-12.919h10.766V25.838H90.433ZM77.514 88.28H88.28V77.514H77.514Zm0-12.919H88.28V64.595H77.514Zm0-25.838H88.28V38.757H77.514Zm0-12.919H88.28V25.838H77.514ZM64.595 204.551h10.766v-10.766H64.595Zm0-12.919h10.766v-10.766H64.595Zm0-12.919h10.766v-10.766H64.595Zm0-12.919h10.766v-10.766H64.595Zm0-12.919h10.766v-10.766H64.595Zm0-38.757h10.766v-10.766H64.595Zm0-12.919h10.766V90.433H64.595Zm0-25.838h10.766V64.595H64.595Zm0-38.757h10.766V25.838H64.595Zm0-12.919h10.766V12.919H64.595Zm0-12.92h10.766V0H64.595ZM51.676 217.47h10.766v-10.766H51.676Zm0-12.919h10.766v-10.766H51.676Zm0-12.919h10.766v-10.766H51.676Zm0-12.919h10.766v-10.766H51.676Zm0-12.919h10.766v-10.766H51.676Zm0-51.676h10.766v-10.766H51.676Zm0-12.919h10.766V90.433H51.676Zm0-38.757h10.766V51.676H51.676Zm0-38.757h10.766V12.919H51.676ZM38.757 243.309h10.766v-10.766H38.757Zm0-12.919h10.766v-10.766H38.757Zm0-64.596h10.766v-10.766H38.757Zm0-12.919h10.766v-10.766H38.757Zm0-51.676h10.766V90.433H38.757Zm-12.919 142.11h10.766v-10.766H25.838Zm0-77.515h10.766v-10.766H25.838Zm0-12.919h10.766v-10.766H25.838Zm0-12.919h10.766V129.19H25.838Zm-12.919 38.757h10.766v-10.766H12.919Zm0-12.919h10.766v-10.766H12.919Zm0-12.919h10.766v-10.766H12.919Zm0-12.919h10.766V129.19H12.919Zm0-12.919h10.766v-10.766H12.919ZM0 178.713h10.766v-10.766H0Zm0-12.919h10.766v-10.766H0Zm88.28-75.361H77.514v10.766H88.28Zm0 12.919H77.514v10.766H88.28Zm0 12.919H77.514v10.766H88.28Zm0 12.919H77.514v10.766H88.28Zm0 12.919H77.514v10.766H88.28Zm0 12.919H77.514v10.766H88.28Zm0 12.919H77.514v10.766H88.28Zm0 12.919H77.514v10.766H88.28Z"/></svg>
