<svg xmlns="http://www.w3.org/2000/svg" width="447.036" height="313.707" viewBox="0 0 118.278 83.002"><path d="M72.563 68.974c-5.793-.024-11.655.211-16.405.745-2.375.266-4.473.607-6.158 1.035s-2.956.904-3.752 1.643c-1.399 1.298-2.114 3.92-2.643 7.275s-.77 7.434-.767 11.504c.002 4.069.247 8.123.703 11.42.228 1.648.508 3.106.844 4.295.335 1.188.7 2.104 1.244 2.726.311.356.72.559 1.238.758.517.2 1.148.374 1.889.535 1.481.321 3.402.586 5.63.8 4.458.43 10.14.655 15.84.67.932.001 1.858-.011 2.785-.02l10.2 11.808c.007.036-.005.098.004.129.066.239.157.372.258.525.202.306.476.64.822 1.05.69.82 1.653 1.914 2.63 3.197 1.95 2.564 3.894 5.871 3.854 8.91-.04 3.013-2.162 5.766-4.252 7.953-1.045 1.093-2.06 2.029-2.781 2.84-.36.405-.648.77-.848 1.203-.757 1.643-.004 1.948.995 1.99.289.034.54-.025.763-.108.444-.165.817-.436 1.235-.771.835-.67 1.806-1.627 2.933-2.617 2.255-1.98 5.08-4.01 8.06-4.03 3.04-.02 6.31 1.677 8.788 3.434 2.47 1.752 4.116 3.49 4.127 3.502l.014.012.015.017h.01l.094.086c.3.17.674.135.938-.086a1 1 0 0 0 .128 0 .83.83 0 0 0 .212-.433.83.83 0 0 0-.193-.71l-.002-.01-.01-.007-.006-.01-.352-.352-.07-.03c-.281-.207-1.804-1.3-3.627-3.337-1.984-2.219-3.912-5.207-3.971-8.192-.058-2.93 2.045-5.935 4.133-8.39 1.044-1.228 2.061-2.31 2.777-3.239.358-.465.648-.883.824-1.35.177-.465.204-1.15-.206-1.615a1.38 1.38 0 0 0-.819-.435 1.6 1.6 0 0 0-.795.115c-.459.18-.84.475-1.267.838-.855.727-1.845 1.768-2.985 2.84-2.28 2.144-5.106 4.312-7.926 4.273-2.856-.039-5.778-2.104-8.017-4.187-1.12-1.042-2.065-2.07-2.78-2.817-.357-.373-.648-.673-.924-.902-.137-.114-.258-.215-.48-.306q0-.001-.002-.002l-9.341-10.815c3.973-.078 7.788-.259 10.993-.558 2.262-.211 4.223-.477 5.752-.809 1.53-.33 2.613-.637 3.276-1.324 3.876-4.013 3.326-9.385 3.326-9.385a.661.661 0 1 0-1.317.131s.461 4.793-2.96 8.336c-.18.187-1.16.637-2.604.95-1.443.312-3.367.577-5.596.785-3.453.322-7.646.51-11.994.573l-3.21-3.716c.931-.143 2.25-.372 3.88-.812 1.271-.344 2.572-.785 3.64-1.368 1.066-.582 1.973-1.321 2.19-2.408.145-.725.035-1.409-.109-2.074.137-.222.337-.355.441-.615l.016-.045c.27-.844.185-.892.39-1.586.015-.003.02-.007.034-.01.311-.063.716-.08 1.035-.14.236.029.435.148.683.144 1.043-.015 2.084-.274 3.079-.656 12.277-1.72 28.32-1.548 41.74.09 7.522.917 10.893 2.889 12.371 4.49.74.8 1.022 1.511 1.135 2.012.112.5.062.728.062.728l.01.049c-.207-.01-.35-.02-.35-.02a.661.661 0 1 0-.129 1.317s3.003.333 5.448-.613c1.461-.566 2.604-1.554 3.289-2.258-.194.642-.733 1.856-2.176 2.802-2.058 1.351-6.33 2.19-6.33 2.19a.661.661 0 0 0 .238 1.3s4.304-.734 6.819-2.384a6.65 6.65 0 0 0 2.27-2.505c-.333.981-1.249 3.232-3.03 4.568-2.321 1.74-6.518 2.156-6.518 2.156a.661.661 0 1 0 .11 1.318s4.378-.298 7.2-2.416c.996-.747 1.746-1.688 2.3-2.594-.239.76-.674 1.619-1.746 2.754-2.27 2.404-6.955 4.717-6.955 4.717a.661.661 0 1 0 .577 1.191s4.75-2.259 7.338-5c2.55-2.698 2.185-4.534 2.69-5.601a.66.66 0 0 0-.314-.881.66.66 0 0 0-.307-.055c.056-.193.094-.334.094-.334a.66.66 0 0 0-.485-.8.66.66 0 0 0-.594.162c.186-.518.235-.863.235-.863a.66.66 0 0 0-.572-.74l-.028.001a.66.66 0 0 0-.894-.81c-.128-.415-.605-2.153-.787-5.432-.112-2.009-.561-3.516-.99-4.527-.43-1.012-.872-1.569-.872-1.569a.661.661 0 0 0-1.029.83s.307.374.682 1.256c.374.882.784 2.232.886 4.082.218 3.92.893 5.897.893 5.897.057.161.14.529.14.529l-1.083.955s-.084-.61-.086-.747c0 0-.042-3.25-1.133-7.685-1.106-4.5-3.303-6.869-3.303-6.869a.661.661 0 1 0-.967.904s1.948 2.063 2.985 6.28c1.053 4.282 1.213 7.73 1.213 7.73.056.247.173.98.173.98s-.291.187-.41.233c-.42.163-.878.278-1.34.362.41-.99 1.736-4.776-.113-8.606-2.048-4.242-4.687-7.027-4.687-7.027a.661.661 0 1 0-.961.91s2.504 2.645 4.457 6.691c.478.99.708 1.982.788 2.91a13 13 0 0 0-.482-1.402c-1.478-3.614-5.063-7.845-13.142-10.428-8.07-2.58-17.33-2.71-26.195-2.648-7.586.054-14.807.167-20.776-.828-.294-.257-.639-.556-.906-.797-.95-.855-1.696-1.634-1.947-2.074l-.008-.006c-.104-.19-.193-.307-.399-.592-.214-.297-.509-.695-.867-1.16a66 66 0 0 0-2.775-3.371c-2.178-2.468-4.722-5.059-7.018-5.756-1.085-.33-2.077-.3-2.937-.024-.86.277-1.587.8-2.137 1.457-1.1 1.314-1.61 3.088-1.634 4.639-.027 1.677.95 3.144 2.173 4.256s2.717 1.902 4.02 2.2c1.383.316 2.604-.39 3.558-1.169.14.1.204.204.356.301.941.603 2.262 1.183 3.797 1.746-.814.627-1.727 1.327-2.05 1.567-.105.078-.595.503-.814.685-2.022-.65-4.152-1.407-6.23-2.094-1.351-.446-2.579-.715-3.822-1.007-.156-.312-.253-.624-.426-.928-.578-1.017-1.247-1.956-2.025-2.647-.78-.69-1.725-1.155-2.745-1.01-1.025.147-1.86.84-2.584 1.69s-1.348 1.894-1.873 2.916a28 28 0 0 0-1.37 3.129L49.75 82.9a.827.827 0 0 0-1.253 1.08l23.38 27.065c-.55.003-1.095.013-1.645.011-5.668-.014-11.322-.24-15.717-.664-2.197-.211-4.08-.472-5.476-.775-.698-.152-1.275-.315-1.694-.477s-.674-.341-.72-.394c-.28-.32-.654-1.114-.965-2.215s-.585-2.51-.807-4.117c-.444-3.214-.69-7.222-.691-11.239-.002-4.016.24-8.046.752-11.298s1.399-5.734 2.236-6.51c.447-.415 1.585-.928 3.178-1.332s3.642-.74 5.978-1.002c4.673-.525 10.5-.758 16.254-.734 5.753.023 11.439.305 15.83.806 2.196.25 4.07.557 5.447.905 1.378.347 2.253.85 2.348.978 2.671 3.626 1.041 9.715 1.041 9.715a.661.661 0 0 0 1.272.365s1.971-6.498-1.246-10.865c-.58-.787-1.619-1.106-3.092-1.477-1.474-.372-3.39-.68-5.622-.935-4.463-.51-10.18-.793-15.974-.817Zm-4.58 2.828c.361.007.755.072 1.189.204 1.115.339 2.72 1.715 4.322 3.277h-.018a3.95 3.95 0 0 0-2.44 1.202c-.65.685-1.04 1.696-.772 2.773.164.664.645 1.317 1.287 1.96-.733.544-1.505.923-2.217.76-1.005-.23-2.374-.934-3.424-1.888s-1.76-2.123-1.742-3.258c.02-1.261.487-2.804 1.328-3.809.42-.502.905-.887 1.502-1.082.299-.097.625-.147.986-.14m6.202 4.77c.478.01.678.111.692.125.009.009.002-.015.006.041a1 1 0 0 1-.065.342c-.108.32-.356.755-.6 1.143-.12.193-.241.377-.345.548-.064.106-.108.22-.16.328-.186.198-.383.44-.666.759-.139.156-.333.327-.496.496-.536-.525-.904-1.02-1.002-1.415-.154-.622.04-1.113.447-1.544a2.75 2.75 0 0 1 1.615-.797q.337-.033.574-.027m1.74 1.217a70 70 0 0 1 2.374 2.885c.35.456.637.842.842 1.127.086.12.077.106.137.195-.069.078-.121.145-.235.256-.255.248-.662.583-1.05.906-1.826-.618-3.355-1.25-4.325-1.871-.046-.03-.056-.055-.1-.084.15-.156.342-.325.467-.466.331-.374.6-.697.682-.78a.66.66 0 0 0 .162-.274c-.013.044.038-.083.125-.226s.207-.326.336-.531c.205-.328.41-.73.586-1.137m-17.099 2.234c.518-.074 1.069.15 1.678.69.562.498 1.115 1.283 1.617 2.13h-.002c-1.69-.256-3.207-.239-4.393.442-2.117 1.217-2.97 3.157-2.636 4.889.333 1.731 1.788 3.194 3.855 3.625 1.944.405 3.625.282 4.857-.36s1.951-1.922 1.74-3.367c-.118-.818-.5-1.989-.995-3.225.905.245 1.718.39 2.695.714 1.78.588 3.627 1.258 5.432 1.859-.216.184-.23.19-.477.4-1.296 1.11-2.94 2.527-4.554 3.922-2.986 2.58-5.449 4.72-5.867 5.083L53.8 87.591a28.6 28.6 0 0 1 1.56-3.67c.495-.966 1.083-1.937 1.7-2.661.618-.725 1.253-1.163 1.766-1.237m21.315 2.983c.283.343.595.7.984 1.068-.201-.048-.44-.061-.637-.113-.404-.105-.651-.222-1.023-.33.159-.14.367-.302.5-.432.07-.068.114-.129.176-.193m-19.324 1.03q.52.027 1.103.116c.282.043.667.195.967.256.69 1.516 1.23 3.05 1.348 3.856.14.972-.204 1.566-1.044 2.004s-2.24.598-3.976.236c-1.612-.336-2.602-1.412-2.827-2.58-.224-1.169.252-2.49 1.997-3.493.373-.214.868-.342 1.465-.388q.448-.034.967-.007m17.466.603c.635.2 1.14.41 1.871.601.854.223 1.813.33 2.723.493.674.587 1.337 1.16 2.021 1.779.201.181.327.356.522.539-2.21-.11-4.444-.096-6.621-.39-.966-.132-2.185-.529-3.342-.86l.031-.026c.426-.316 1.666-1.235 2.795-2.136m7.116 1.55c5.678.673 12.181.504 18.861.457 8.845-.062 17.982.092 25.783 2.586 7.29 2.33 10.48 5.892 11.963 9.016-1.73-2.992-5.474-6.34-13.404-8.287-13.403-3.291-27.544-1.374-41.239-1.797-.531-.547-.99-1.103-1.578-1.635-.134-.12-.252-.22-.386-.34M74.21 87.851c1.538.473 3.075.941 4.41 1.122.195.026.393.01.588.035-.12.096-.26.118-.377.226-.887.822-1.567 1.986-1.656 3.21-4.393.83-7.237 1.826-8.785 3.144-.832.708-1.329 1.535-1.49 2.41s0 1.759.335 2.623c.194.5.52.92.988 1.086.47.167.94.05 1.335-.139.79-.376 1.516-1.09 2.296-1.853.78-.764 1.585-1.583 2.305-2.137s1.294-.75 1.566-.672c.452.128 1.108.596 1.74 1.18-1.11.406-1.96.835-2.505 1.3-.508.434-.832.933-.861 1.487s.276 1.048.67 1.352c.786.608 1.95.762 3.128.463.458-.117.899-.392 1.327-.68-.011.155.057.302.025.459-.09.451-.617 1.01-1.53 1.507-.912.499-2.136.922-3.35 1.25a36 36 0 0 1-4.555.907l-7.174-8.305c.417-.361 2.881-2.504 5.867-5.084a1394 1394 0 0 1 4.549-3.918c.614-.525.731-.617 1.154-.973m8.06 1.342c1.503.13 3.009.215 4.518.272.297.322.703.662.94.97.198.259.142.407.284.647-1.758.146-3.48.383-5.21.604-.012-1.11-.274-1.831-.531-2.493m27.729.22c6.226.01 12.36.378 18.285 1.833 7.878 1.934 11.253 5.178 12.727 7.865.009.016.005.025.013.041-1.776-2.303-5.423-4.724-13.04-6.056-12.256-2.144-25.613-3.094-38.422-2.194a8.3 8.3 0 0 0-.786-1.27c-.012-.017-.034-.034-.046-.05 5.004.104 10.022.032 15.015-.086 2.092-.05 4.178-.086 6.254-.082m-29.021.081c-.012-.005-.022-.042.01.041.32.851.547 1.233.515 2.301-.98.137-1.997.182-2.965.344.192-.654.589-1.417 1.193-1.977.416-.385.864-.639 1.1-.695.118-.029.158-.009.147-.014m18.74 2.368q1.64.001 3.281.042c8.41.21 16.82 1.106 24.758 2.494 7.863 1.376 11.17 3.884 12.545 5.91.142.21.096.334.2.534-1.97-1.748-5.561-3.477-12.487-4.322-12.575-1.535-27.383-1.81-39.446-.448.78-.85 1.402-1.865 1.504-3.205.018-.23-.094-.45-.129-.676 3.232-.22 6.498-.332 9.775-.329m-11.147.488c.018.117.192.316.184.417-.113 1.488-.837 2.497-1.9 3.21-.313.208-.7.325-1.063.474-1.153.164-2.397.277-3.478.477-.215-.037-.433-.066-.633-.135.35-1.331.828-2.958.921-3.754 1.98-.258 3.95-.53 5.969-.69m-7.351.847c-.083.608-.48 1.948-.733 2.95-.203-.153-.439-.258-.619-.44-.644-.65-.94-1.462-1.187-2.217.827-.139 1.702-.173 2.539-.293m-3.938.58c.3 1.005.816 2.022 1.649 2.861.3.304.7.51 1.066.753-.394.094-.72.195-1.066.293-.875-1.011-1.89-1.78-2.844-2.051-.989-.281-1.899.253-2.735.896-.836.644-1.658 1.492-2.423 2.24-.765.75-1.5 1.396-1.942 1.606-.22.105-.31.09-.32.086s-.085-.026-.197-.316c-.278-.717-.373-1.347-.27-1.907.104-.56.394-1.088 1.047-1.645 1.199-1.02 3.852-2.004 8.035-2.816m1.149 5.422c.25.377.474.77.62 1.192-.43.504-.926.874-1.48 1.015-.83.211-1.686.008-1.992-.228-.153-.119-.164-.169-.16-.234.003-.066.062-.261.4-.55.41-.35 1.36-.772 2.612-1.195m72.078 12.182c-.631-.056-.971.723-.502 1.148 0 0 .965.875 2.248 1.858.201.154.456.245.67.402.25.51.487 1.07.584 1.9.448 3.847-1.096 8.616-1.635 11.906l-.21.032-2.526.408a.661.661 0 1 0 .21 1.307l2.526-.408c.332-.048.418-.067.703-.103a.66.66 0 0 0 .222-.09 1 1 0 0 0 .07-.045.7.7 0 0 0 .13-.148l.025-.032a.7.7 0 0 0 .078-.224l.005-.013c.408-2.996 2.245-8.216 1.717-12.744-.037-.31-.176-.472-.239-.748.667.405 1.3.946 1.94 1.166 1.41.483 2.565.245 3.316-.146.751-.392 1.152-.955 1.152-.955a.661.661 0 1 0-1.078-.764s-.205.293-.687.545c-.482.25-1.184.442-2.276.068-.833-.285-1.942-1.08-2.97-1.805-.433-.771-.953-1.349-1.48-1.719-1.005-.703-1.993-.796-1.993-.796zm-4.237 3.627-.253.058s-.121.068-.16.102a1 1 0 0 0-.09.092c-.205.256-2.474 3.083-3.108 5.775-.313 1.33-.164 2.34.098 3.016s.682 1.062.682 1.062a.661.661 0 0 0 .87-.996s-.15-.113-.318-.545c-.167-.431-.303-1.135-.044-2.234.294-1.252 1.07-2.594 1.773-3.674.017.763.032 1.581.072 2.635.101 2.678.311 5.98.867 8.463s1.459 4.084 2.247 5.066 1.525 1.38 1.525 1.38a.662.662 0 0 0 .607-1.176s-.442-.21-1.101-1.032c-.66-.822-1.47-2.223-1.986-4.527s-.736-5.577-.837-8.225c-.05-1.324-.072-2.495-.092-3.328q-.013-.627-.03-.98a3 3 0 0 0-.026-.305c-.007-.05 0-.083-.062-.223a.6.6 0 0 0-.182-.244l-.182-.111zm-37.92 10.826q.032.021.065.039c-.633.797-1.553 1.797-2.566 2.988-2.153 2.532-4.6 5.789-4.526 9.494.049 2.447 1.143 4.588 2.438 6.528-.734-.399-1.492-.772-2.27-1.093.246-.058.501-.191.639-.368.233-.3.251-.753.17-1.018a1.9 1.9 0 0 0-.328-.603c-.25-.336-.554-.648-.86-1.004-.61-.712-1.165-1.528-1.19-2.402-.024-.887.477-1.816 1.04-2.649.282-.416.568-.795.793-1.183a2.5 2.5 0 0 0 .28-.641c.063-.25.08-.604-.097-.928-.158-.29-.546-.54-.86-.572-.312-.032-.53.044-.727.121-.394.155-.735.379-1.117.613-.765.469-1.645.95-2.311.996-.571.04-1.455-.42-2.25-.959-.398-.269-.764-.538-1.15-.742a1.8 1.8 0 0 0-.676-.232c-.285-.035-.732.073-.985.357-.237.267-.308.67-.27.941.04.271.133.465.231.647.196.366.446.698.684 1.064.476.734.86 1.511.744 2.272-.135.888-.655 1.897-1.135 2.791q-.028.053-.055.105a9 9 0 0 0 .37-2.396c.04-3.08-1.523-5.905-3.194-8.344 2.125 1.724 4.586 3.32 7.454 3.36 3.639.05 6.723-2.508 9.08-4.725 1.04-.978 1.875-1.821 2.58-2.457m37.659 3.757a.7.7 0 0 0-.207 0c-.935.152-1.765.285-2.318.374a.661.661 0 0 0 .21 1.306l2.319-.375a.661.661 0 0 0-.004-1.305m-51.87 5.206c.789.52 1.732 1.086 2.897 1.006 1.005-.07 1.826-.516 2.53-.936-.607.9-1.338 2.1-1.297 3.572.02.744.246 1.392.546 1.957-.471-.206-.96-.408-1.548-.425-1.48-.043-2.734.722-3.666 1.298-.076.047-.105.06-.176.104.059-.113.082-.176.148-.299.48-.892 1.116-2.034 1.312-3.328.182-1.197-.28-2.166-.745-2.95m3.08 6.828c.849.024 1.633.55 2.305 1.113.244.205.462.405.688.588-1.075-.338-2.188-.549-3.342-.541-3.7.024-6.803 2.39-9.14 4.442-.522.457-.842.741-1.284 1.146.445-.443.769-.773 1.273-1.301 1.281-1.34 2.66-2.956 3.596-4.82a1.3 1.3 0 0 0 .204.842c.2.315.659.517.97.51s.524-.1.73-.196c.413-.191.807-.458 1.25-.732.887-.548 1.915-1.075 2.75-1.051" style="color:#000;fill:#000;fill-rule:evenodd;stroke:none;stroke-linecap:round;stroke-linejoin:round;-inkscape-stroke:none" transform="translate(-42.838 -68.973)"/></svg>
